<svg width="620" height="180" viewBox="0 0 620 180" fill="none" xmlns="http://www.w3.org/2000/svg">
<g clip-path="url(#clip0_1_2)">
<rect x="5" y="13" width="180.687" height="144.55" rx="30" fill="#7C3AED"/>
<path d="M185.67 164.829C185.675 168.257 182.307 170.674 179.062 169.571L146.096 158.371C142.244 157.062 141.484 151.946 144.79 149.574L177.705 125.958C181.011 123.586 185.614 125.945 185.62 130.013L185.67 164.829Z" fill="#7C3AED"/>
<path d="M149.253 130.106C149.2 134.067 144.782 136.396 141.484 134.201L122.738 121.728C119.579 119.626 119.82 114.911 123.176 113.142L142.227 103.101C145.583 101.332 149.61 103.798 149.558 107.591L149.253 130.106Z" fill="white"/>
<rect x="40.4147" y="36.8507" width="109.135" height="32.5237" rx="16.2619" fill="white"/>
<rect x="40.4147" y="119.967" width="83.1162" height="32.5237" rx="16.2619" transform="rotate(-90 40.4147 119.967)" fill="white"/>
<rect x="40.4147" y="91.0569" width="109.135" height="32.5237" rx="16.2619" fill="white"/>
<path d="M252.79 84.728C252.065 83.5333 251.062 82.616 249.782 81.976C248.545 81.336 247.073 81.016 245.366 81.016C242.209 81.016 239.713 82.04 237.878 84.088C236.086 86.136 235.19 88.888 235.19 92.344C235.19 96.2267 236.15 99.192 238.07 101.24C240.033 103.245 242.87 104.248 246.582 104.248C250.977 104.248 254.113 102.264 255.99 98.296H243.382V89.272H266.806V101.432C265.825 103.821 264.374 106.061 262.454 108.152C260.577 110.243 258.188 111.971 255.286 113.336C252.385 114.659 249.078 115.32 245.366 115.32C240.844 115.32 236.833 114.36 233.334 112.44C229.878 110.477 227.19 107.768 225.27 104.312C223.393 100.813 222.454 96.824 222.454 92.344C222.454 87.9067 223.393 83.96 225.27 80.504C227.19 77.0053 229.878 74.296 233.334 72.376C236.79 70.4133 240.78 69.432 245.302 69.432C250.977 69.432 255.67 70.7973 259.382 73.528C263.094 76.2587 265.398 79.992 266.294 84.728H252.79ZM270.38 97.016C270.38 93.304 271.041 90.0613 272.364 87.288C273.729 84.5147 275.564 82.3813 277.868 80.888C280.214 79.3947 282.817 78.648 285.676 78.648C288.15 78.648 290.284 79.1387 292.076 80.12C293.868 81.1013 295.254 82.424 296.236 84.088V79.096H308.78V115H296.236V110.008C295.254 111.672 293.846 112.995 292.012 113.976C290.22 114.957 288.108 115.448 285.676 115.448C282.817 115.448 280.214 114.701 277.868 113.208C275.564 111.715 273.729 109.581 272.364 106.808C271.041 103.992 270.38 100.728 270.38 97.016ZM296.236 97.016C296.236 94.712 295.596 92.8987 294.316 91.576C293.078 90.2533 291.542 89.592 289.708 89.592C287.83 89.592 286.273 90.2533 285.036 91.576C283.798 92.856 283.18 94.6693 283.18 97.016C283.18 99.32 283.798 101.155 285.036 102.52C286.273 103.843 287.83 104.504 289.708 104.504C291.542 104.504 293.078 103.843 294.316 102.52C295.596 101.197 296.236 99.3627 296.236 97.016ZM337.112 104.312V115H331.672C322.498 115 317.912 110.456 317.912 101.368V89.528H313.496V79.096H317.912V70.392H330.52V79.096H337.048V89.528H330.52V101.56C330.52 102.541 330.733 103.245 331.16 103.672C331.629 104.099 332.397 104.312 333.464 104.312H337.112ZM366.481 78.776C370.577 78.776 373.82 80.1627 376.209 82.936C378.641 85.6667 379.857 89.3787 379.857 94.072V115H367.313V95.736C367.313 93.688 366.78 92.088 365.713 90.936C364.647 89.7413 363.217 89.144 361.425 89.144C359.548 89.144 358.076 89.7413 357.009 90.936C355.943 92.088 355.409 93.688 355.409 95.736V115H342.865V67.64H355.409V84.216C356.519 82.5947 358.012 81.2933 359.889 80.312C361.809 79.288 364.007 78.776 366.481 78.776ZM421.044 96.632C421.044 97.6133 420.98 98.5947 420.852 99.576H397.108C397.236 101.539 397.77 103.011 398.708 103.992C399.69 104.931 400.927 105.4 402.42 105.4C404.511 105.4 406.004 104.461 406.9 102.584H420.276C419.722 105.059 418.634 107.277 417.012 109.24C415.434 111.16 413.428 112.675 410.996 113.784C408.564 114.893 405.876 115.448 402.932 115.448C399.391 115.448 396.234 114.701 393.46 113.208C390.73 111.715 388.575 109.581 386.996 106.808C385.46 104.035 384.692 100.771 384.692 97.016C384.692 93.2613 385.46 90.0187 386.996 87.288C388.532 84.5147 390.666 82.3813 393.396 80.888C396.17 79.3947 399.348 78.648 402.932 78.648C406.474 78.648 409.61 79.3733 412.34 80.824C415.071 82.2747 417.204 84.3653 418.74 87.096C420.276 89.784 421.044 92.9627 421.044 96.632ZM408.244 93.496C408.244 91.96 407.732 90.7653 406.708 89.912C405.684 89.016 404.404 88.568 402.868 88.568C401.332 88.568 400.074 88.9947 399.092 89.848C398.111 90.6587 397.471 91.8747 397.172 93.496H408.244ZM438.722 85.432C440.13 83.384 441.836 81.7627 443.842 80.568C445.847 79.3733 448.002 78.776 450.306 78.776V92.152H446.786C444.055 92.152 442.028 92.6853 440.706 93.752C439.383 94.8187 438.722 96.6747 438.722 99.32V115H426.178V79.096H438.722V85.432ZM518.355 69.88L507.283 115H491.859L485.651 87.352L479.315 115H463.891L452.947 69.88H466.515L471.763 100.728L478.867 69.88H492.627L499.539 100.472L504.787 69.88H518.355ZM530.014 75.768C527.795 75.768 526.003 75.1707 524.638 73.976C523.315 72.7387 522.654 71.2027 522.654 69.368C522.654 67.4907 523.315 65.9333 524.638 64.696C526.003 63.4587 527.795 62.84 530.014 62.84C532.19 62.84 533.939 63.4587 535.262 64.696C536.627 65.9333 537.31 67.4907 537.31 69.368C537.31 71.2027 536.627 72.7387 535.262 73.976C533.939 75.1707 532.19 75.768 530.014 75.768ZM536.222 79.096V115H523.678V79.096H536.222ZM558.661 115.448C555.419 115.448 552.517 114.915 549.957 113.848C547.44 112.739 545.435 111.245 543.941 109.368C542.491 107.448 541.68 105.293 541.509 102.904H553.669C553.84 104.056 554.373 104.952 555.269 105.592C556.165 106.232 557.275 106.552 558.597 106.552C559.621 106.552 560.432 106.339 561.029 105.912C561.627 105.485 561.925 104.931 561.925 104.248C561.925 103.352 561.435 102.691 560.453 102.264C559.472 101.837 557.851 101.368 555.589 100.856C553.029 100.344 550.896 99.768 549.189 99.128C547.483 98.488 545.989 97.4427 544.709 95.992C543.472 94.5413 542.853 92.5787 542.853 90.104C542.853 87.9707 543.429 86.0507 544.581 84.344C545.733 82.5947 547.419 81.208 549.637 80.184C551.899 79.16 554.608 78.648 557.765 78.648C562.459 78.648 566.149 79.8 568.837 82.104C571.525 84.408 573.083 87.4373 573.509 91.192H562.181C561.968 90.04 561.456 89.1653 560.645 88.568C559.877 87.928 558.832 87.608 557.509 87.608C556.485 87.608 555.696 87.8 555.141 88.184C554.629 88.568 554.373 89.1013 554.373 89.784C554.373 90.6373 554.864 91.2987 555.845 91.768C556.827 92.1947 558.405 92.6427 560.581 93.112C563.184 93.6667 565.339 94.2853 567.045 94.968C568.795 95.6507 570.309 96.76 571.589 98.296C572.912 99.7893 573.573 101.837 573.573 104.44C573.573 106.531 572.955 108.408 571.717 110.072C570.523 111.736 568.795 113.059 566.533 114.04C564.315 114.979 561.691 115.448 558.661 115.448ZM614.044 96.632C614.044 97.6133 613.98 98.5947 613.852 99.576H590.108C590.236 101.539 590.77 103.011 591.708 103.992C592.69 104.931 593.927 105.4 595.42 105.4C597.511 105.4 599.004 104.461 599.9 102.584H613.276C612.722 105.059 611.634 107.277 610.012 109.24C608.434 111.16 606.428 112.675 603.996 113.784C601.564 114.893 598.876 115.448 595.932 115.448C592.391 115.448 589.234 114.701 586.46 113.208C583.73 111.715 581.575 109.581 579.996 106.808C578.46 104.035 577.692 100.771 577.692 97.016C577.692 93.2613 578.46 90.0187 579.996 87.288C581.532 84.5147 583.666 82.3813 586.396 80.888C589.17 79.3947 592.348 78.648 595.932 78.648C599.474 78.648 602.61 79.3733 605.34 80.824C608.071 82.2747 610.204 84.3653 611.74 87.096C613.276 89.784 614.044 92.9627 614.044 96.632ZM601.244 93.496C601.244 91.96 600.732 90.7653 599.708 89.912C598.684 89.016 597.404 88.568 595.868 88.568C594.332 88.568 593.074 88.9947 592.092 89.848C591.111 90.6587 590.471 91.8747 590.172 93.496H601.244Z" fill="#7C3AED"/>
</g>
<defs>
<clipPath id="clip0_1_2">
<rect width="620" height="180" fill="white"/>
</clipPath>
</defs>
</svg>
