<svg width="500" height="500" viewBox="0 0 500 500" fill="none" xmlns="http://www.w3.org/2000/svg">
<g clip-path="url(#clip0_1_2)">
<rect x="34" y="45" width="428.34" height="393.273" rx="30" fill="#7C3AED"/>
<path d="M462.312 469.362C462.317 473.084 459.013 475.805 455.943 474.608L354.94 435.226C351.428 433.857 350.873 428.525 353.977 425.969L454.826 342.927C457.931 340.37 462.154 342.681 462.159 346.939L462.312 469.362Z" fill="#7C3AED"/>
<path d="M375.796 378.225C375.746 382.514 371.267 385.223 368.155 382.847L302.653 332.826C299.831 330.671 300.262 325.854 303.448 323.927L370.015 283.66C373.201 281.733 376.907 284.048 376.861 287.937L375.796 378.225Z" fill="white"/>
<rect x="117.955" y="109.89" width="258.717" height="88.4863" rx="30" fill="white"/>
<rect x="117.955" y="336.022" width="226.132" height="77.1011" rx="38.5506" transform="rotate(-90 117.955 336.022)" fill="white"/>
<rect x="117.955" y="257.367" width="258.717" height="88.4863" rx="20" fill="white"/>
</g>
<defs>
<clipPath id="clip0_1_2">
<rect width="500" height="500" fill="white"/>
</clipPath>
</defs>
</svg>
